PathFileType	4	(X/Y/Z)	T1_P2_NoVision_NoMovement_3_0-734.trc
DataRate	CameraRate	NumFrames	NumMarkers	Units	OrigDataRate	OrigDataStartFrame	OrigNumFrames
60	60	4	27	m	60	550	734
Frame#	Time	RHip			RKnee			RAnkle			RBigToe			RSmallToe			RHeel			LHip			LKnee			LAnkle			LBigToe			LSmallToe			LHeel			Neck			Head			Nose			RShoulder			RElbow			RWrist			RThumb			RIndex			RPinky			LShoulder			LElbow			LWrist			LThumb			LIndex			LPinky		
		X1	Y1	Z1	X2	Y2	Z2	X3	Y3	Z3	X4	Y4	Z4	X5	Y5	Z5	X6	Y6	Z6	X7	Y7	Z7	X8	Y8	Z8	X9	Y9	Z9	X10	Y10	Z10	X11	Y11	Z11	X12	Y12	Z12	X13	Y13	Z13	X14	Y14	Z14	X15	Y15	Z15	X16	Y16	Z16	X17	Y17	Z17	X18	Y18	Z18	X19	Y19	Z19	X20	Y20	Z20	X21	Y21	Z21	X22	Y22	Z22	X23	Y23	Z23	X24	Y24	Z24	X25	Y25	Z25	X26	Y26	Z26	X27	Y27	Z27
551	9.183333333333334	469.59986195997755	3603.1378984568273	519.7169338486043	866.01622020387	3655.8352010947683	540.4540683905988	1257.2201615025126	3746.5458610760834	617.7707882783991	1323.0496714298272	3618.496567462974	553.4393419619086	1314.6330054542998	3675.0834233819605	521.7536497010151	1280.0362094310105	3719.518836321015	623.3106834174357	472.13739859967507	3486.896714026361	716.4038358433986	874.8937924418719	3533.088172744977	724.6623494881547	1242.6475865049847	3598.0444433632115	718.9614540724324	1310.412289094626	3485.1977887926423	670.9899568077303	1274.6641840152588	3443.4860886080796	705.8118279832244	1268.802316240665	3601.231831863647	700.8021025122453	-109.71928459625157	3522.885629877022	621.6804330985229	-360.9760994466336	3451.156373710603	579.6759818377712	-224.73545043691695	3403.7113529674357	554.5954744018336	-24.0763558080885	3639.5501817741997	477.33830842242344	218.4474211953149	3594.043807757719	400.8425945143152	382.7988158217366	3446.667934621714	482.7978443243627	435.923211749823	3387.6982224536696	565.2122304228471	451.9961456947064	3405.0261984424365	583.0797004321128	480.8318301121984	3373.345177837612	549.4959061376156	-19.716959259440205	3466.887824892533	750.4902913821808	233.28031855625605	3343.3807461770343	714.8436185797584	381.1408308023852	3358.0679417223027	579.2587528402191	435.74797642767396	3393.529386916285	502.9743530677669	468.21901574352313	3429.4944621263353	521.3474475192334	489.8498092927859	3375.6115072178704	547.7540909635366
552	9.2	470.36433046894865	3603.1367038464705	519.868234768953	865.526075059122	3655.4715657721545	540.4748358340614	1257.7115680211414	3746.6911318719162	617.899896309649	1323.9549003950203	3621.559767487981	554.3414411658664	1316.3286240825175	3675.998212755949	522.0414445306582	1279.390385499179	3720.492112150331	623.8217838395459	472.820904076236	3488.650132846033	717.9336889465367	875.9981831822264	3533.637641349895	724.8544555635261	1243.073872981238	3597.2955310795846	718.5371640833183	1309.1088757668101	3481.1943206530404	670.3058316539423	1276.5194810011553	3445.9557915441383	708.3629037358362	1268.9452791378894	3600.5528164441876	701.5209446882568	-108.7022689765469	3522.784718692036	621.6159188956241	-361.0652817197873	3450.939525898226	579.5404406420381	-224.68723528675378	3403.545110053405	554.5495293536444	-24.16005049731567	3635.922127277195	476.409808761762	218.94572368473533	3593.4984752027326	400.61406386711946	382.77486365629136	3446.31336276802	482.5245512832168	435.7108724085879	3386.944684667118	563.8956249368039	452.2907249204686	3405.1302351558943	583.1052210199117	480.40924223967534	3373.351794439749	549.7530404081112	-19.79693021004546	3466.7220586490103	750.4350667575936	233.23050205670125	3343.1178765324403	715.1797286240628	381.32905588307665	3354.6602740355197	577.9540328572467	436.71583047555816	3391.3835816401524	502.7518525916787	468.90182033370274	3430.803911079321	522.6948127081698	492.24205034898984	3378.2516687216103	548.7899062898666
553	9.216666666666669	472.01740732564485	3603.69981569756	520.2292570083608	865.32419157837	3655.148367276111	540.5827708604581	1258.6847373726575	3747.052761046529	618.189119737547	1326.190327012074	3625.570218607035	557.4971517424547	1318.0540191340551	3677.0539117865696	522.3256442521432	1280.2632621516204	3722.542028125618	624.3057819215842	473.3391253714317	3488.983255336417	718.1392114604415	876.5279732465165	3533.9335692805043	725.0364569969457	1243.14638986259	3596.992172836181	718.4314019458732	1307.4935655559611	3476.9558045978633	669.2702019566435	1277.0185686292398	3445.2924265926576	708.1184757297806	1269.171215505776	3599.766444566896	702.0039844421949	-107.65991894550203	3522.2866671803567	621.3494441503626	-361.032238703729	3450.7572070909505	579.3990946715733	-224.63207306507928	3403.427584986057	554.5233425322174	-24.219399707475937	3632.2378005719515	475.75943902979617	218.9171259706517	3592.897622792457	400.5118855213193	382.774956956728	3446.0640810071172	482.3562509347754	435.4794844316314	3386.0643699394186	561.4231858017981	454.1925572744226	3406.144022720526	583.4865595752348	480.2440676682922	3373.3176172342846	549.8110974927126	-19.79007995516873	3466.749420176604	750.4956196737699	233.2173809076265	3343.0048026257987	715.2532236328311	381.6275489739664	3353.7370773396233	577.03172055382	438.74878265652694	3392.551243728084	504.1113275530384	469.9976474136915	3431.667036745568	522.341844553578	493.6948055462867	3379.741533699638	548.1713940477089
554	9.233333333333333	473.3331558326269	3604.198834400597	520.520224383971	865.338291036604	3654.8410380125592	540.7205364176754	1259.3355850388577	3747.340761542526	618.4002731589892	1326.3670574876433	3624.8829449005416	558.5645443431572	1318.1680616079989	3677.461801247779	522.1724813466424	1282.4109296519362	3725.380002576414	624.8886216410319	473.24606911317403	3488.4653960036326	717.823811295059	875.2495206921914	3532.94059097885	724.8044494444996	1242.8342229955085	3596.783852865743	718.5830796132342	1305.9990123244497	3473.9656835545093	668.5050639685392	1275.5921714181354	3441.657384623864	704.9685709313178	1269.3206943743999	3599.233568817893	702.1691787755244	-107.54958801076653	3521.753644660628	621.0948796658145	-361.0078418073242	3451.1000397395837	579.7152249321548	-224.6027608450774	3403.343234861124	554.4941163859014	-24.182285541216544	3630.3077382811844	476.41600467488655	218.66830527435604	3591.1820900635557	400.2137789714888	382.81072654984024	3445.9921733441606	482.34499203579503	435.3248685575491	3385.3473672180635	559.1149309701052	456.13808240354814	3406.923369529838	583.8427312053079	479.79647067278927	3371.768057863609	548.5877011744959	-19.83102926727899	3466.850540530978	750.587382895186	233.2281355051278	3342.7581216201506	715.7317474243584	381.76073004641296	3353.7449005899507	576.6672231236718	441.07253457379215	3395.0184511885636	506.36940009228664	471.4983324844249	3432.4573644762336	521.0401942737226	493.8282869157266	3380.7017517817217	547.7519787940528
